<svg id="Capa_1" data-name="Capa 1" xmlns="http://www.w3.org/2000/svg" viewBox="0 0 548.65 214.99"><defs><style>.cls-1{fill:#21bcef;}.cls-2{fill:#ef774c;}</style></defs><title>logoKuki</title><path class="cls-1" d="M159.46,455.73c.7.47,1,1.81.87,4s-1.34,5-3.67,8.4a22.43,22.43,0,0,1-8.4,7.52q-6,3.49-14.88,1.23t-15.92-10.33q-2.8-3.15-30.8-51.1-9.1,4.2-14.7,4.55.69,31.5,1.4,46.55.35,6.65-11.38,9.28a41.41,41.41,0,0,1-23.45-1.58Q26.8,470.08,26.81,461q0-3.84.52-25.55t.88-45.67q.34-24,.52-48.65T28,300.33q-.87-16.09-3-16.1-2.8,0,1.05-3.15,8-5.94,22-3.85,22.4,3.51,24.15,32.9.34,9.11.17,16.1t-.35,26.25Q72,371.74,72,386.08a236.57,236.57,0,0,0,31.32-33.42q14.18-18.37,18.38-29.93,1.4-4.89,12.6,2.1,14,8.4,15.05,18.55a19.88,19.88,0,0,1-.35,3.85q-5.61,20.65-27.3,44.8l-6.3,6.3q4.2,5.25,16.1,22.23t19.07,26.07Q157.7,455.74,159.46,455.73Z" transform="translate(-23.88 -262.81)"/><path class="cls-1" d="M186.76,434.73q0-2.79.17-18t.18-28q0-12.78-.35-27.48T185.36,338q-1.05-8.58-3.15-8.58-2.81,0,.7-2.8,8-6.3,22.05-4.2,22.39,3.51,24.15,32.9,2.79,77.36,5.95,87.5,2.1,7.71,8.4,7.35a12.39,12.39,0,0,0,4.9-1.05,11.76,11.76,0,0,0,4.37-3.32q1.92-2.28,3.68-4.2a19.93,19.93,0,0,0,3.32-5.78c1-2.56,1.93-4.55,2.63-5.95a47.61,47.61,0,0,0,2.45-6.65q1.4-4.55,1.75-5.95l1.4-5.6,1.4-4.55q7-23.79,8.4-78.75.35-6.65,21.7-7t21.35,7q0,40.26-.7,59.85c0,.7.05,3.15.17,7.35s.23,8.23.35,12.08.29,8.46.53,13.82.58,10.21,1,14.53,1.05,8.52,1.75,12.6a37.94,37.94,0,0,0,2.62,9.45q1.57,3.33,3.68,3.67c.7.24.75,1.29.17,3.15s-2.51,3.74-5.77,5.6-7.7,2.8-13.3,2.8q-30.81,0-32.55-33.6c-.24-7-.59-10.61-1.05-10.85-.47,0-1.17,1.17-2.1,3.5q-10.86,27.3-31.15,39t-39.2-.18a37.69,37.69,0,0,1-13.65-15.57A46.62,46.62,0,0,1,186.76,434.73Zm41.3-132.3A15.55,15.55,0,0,1,216,294.38a23.36,23.36,0,0,1-3-15.05,17.92,17.92,0,0,1,6-11.55,14.17,14.17,0,0,1,11.2-3.5q16.8,1.41,14.35,20.3a29.13,29.13,0,0,1-5.08,13.3Q235.41,303.49,228.06,302.43Zm46.9,0a16,16,0,0,1-12.25-8.05,22.74,22.74,0,0,1-3.15-15.05q2.1-14.7,15.4-13.65,18.54,1.76,16.45,18.55a30.39,30.39,0,0,1-5.08,13.48Q282.31,303.49,275,302.43Z" transform="translate(-23.88 -262.81)"/><path class="cls-2" d="M496.15,455.73c.7.47,1,1.81.88,4s-1.35,5-3.68,8.4a22.29,22.29,0,0,1-8.4,7.52q-6,3.49-14.87,1.23t-15.93-10.33q-2.81-3.15-30.8-51.1-9.11,4.2-14.7,4.55.71,31.5,1.4,46.55.34,6.65-11.37,9.28a41.4,41.4,0,0,1-23.45-1.58q-11.73-4.2-11.73-13.3,0-3.84.53-25.55t.87-45.67q.35-24,.53-48.65t-.7-40.78q-.89-16.09-3-16.1-2.81,0,1.05-3.15,8.06-5.94,22.05-3.85,22.39,3.51,24.15,32.9.35,9.11.18,16.1t-.35,26.25q-.18,19.26-.18,33.6A236.64,236.64,0,0,0,440,352.66q14.17-18.37,18.37-29.93,1.39-4.89,12.6,2.1,14,8.4,15.05,18.55a19.88,19.88,0,0,1-.35,3.85q-5.59,20.65-27.3,44.8l-6.3,6.3q4.2,5.25,16.1,22.23t19.08,26.07Q494.4,455.74,496.15,455.73Z" transform="translate(-23.88 -262.81)"/><path class="cls-2" d="M571.4,467.63q0,5.25-12.42,7.35a67.56,67.56,0,0,1-24.68-.35q-12.25-2.44-12.25-8.05,4.2-132.65-6.65-132.65-2.1,0,.7-3.85,5.25-7.69,17.85-7.7,30.79,0,35.7,31.85,2.45,14,2.8,38.15T571.4,467.63Zm-33.95-168a14.56,14.56,0,0,1-12.07-7.87,24,24,0,0,1-3-15.23q2.1-14.7,15.05-13.65,12.25,1,16.63,6.13a14.91,14.91,0,0,1,3.32,12.42Q555,301.38,537.45,299.63Z" transform="translate(-23.88 -262.81)"/></svg>