<svg id="Capa_1" data-name="Capa 1" xmlns="http://www.w3.org/2000/svg" viewBox="0 0 548.65 214.99"><defs><style>.cls-1{fill:#cef0fa;}</style></defs><title>logobluelight</title><path class="cls-1" d="M440.67,459.05c.71.47,1,1.81.88,4s-1.35,5-3.67,8.4a22.5,22.5,0,0,1-8.41,7.53q-6,3.5-14.87,1.22T398.67,469.9q-2.81-3.15-30.79-51.1-9.12,4.2-14.71,4.55.7,31.5,1.4,46.55.35,6.64-11.37,9.27a41.4,41.4,0,0,1-23.45-1.57Q308,473.4,308,464.3q0-3.85.53-25.55t.87-45.68q.34-24,.53-48.65t-.7-40.77q-.88-16.09-3-16.1-2.81,0,1.05-3.15,8.06-6,22.06-3.85,22.38,3.49,24.14,32.9.35,9.1.18,16.1t-.35,26.25q-.18,19.24-.18,33.6A236.72,236.72,0,0,0,384.5,356q14.17-18.37,18.38-29.92,1.38-4.91,12.59,2.1,14,8.4,15,18.55a20,20,0,0,1-.35,3.85q-5.6,20.65-27.29,44.8l-6.31,6.3q4.21,5.25,16.1,22.23T431.75,450Q438.92,459.05,440.67,459.05Z" transform="translate(-305.09 -266.13)"/><path class="cls-1" d="M468,438.05q0-2.81.18-18t.17-28q0-12.76-.35-27.47t-1.4-23.28q-1.05-8.56-3.15-8.57c-1.87,0-1.63-.93.7-2.8q8.06-6.3,22.05-4.2,22.4,3.49,24.15,32.9,2.81,77.36,5.95,87.5,2.1,7.69,8.4,7.35a12.35,12.35,0,0,0,4.9-1.05,11.9,11.9,0,0,0,4.38-3.33q1.92-2.26,3.67-4.19A19.83,19.83,0,0,0,541,439.1c1-2.56,1.92-4.55,2.62-6A46.35,46.35,0,0,0,546,426.5c.93-3,1.52-5,1.75-5.95l1.4-5.6,1.4-4.55q7-23.79,8.4-78.75.35-6.64,21.7-7t21.35,7q0,40.25-.7,59.85,0,1,.18,7.35t.35,12.07q.17,5.77.52,13.83t1,14.52q.71,6.48,1.75,12.61a37.66,37.66,0,0,0,2.63,9.44q1.58,3.33,3.67,3.68c.7.23.76,1.29.18,3.15s-2.51,3.73-5.78,5.6-7.7,2.8-13.3,2.8q-30.8,0-32.55-33.6-.35-10.5-1-10.85c-.47,0-1.17,1.17-2.1,3.5q-10.85,27.3-31.15,39t-39.2-.18a37.89,37.89,0,0,1-13.65-15.57A46.65,46.65,0,0,1,468,438.05Zm41.3-132.3a15.53,15.53,0,0,1-12.07-8.05,23.32,23.32,0,0,1-3-15.05,17.92,17.92,0,0,1,5.95-11.55,14.14,14.14,0,0,1,11.2-3.5q16.8,1.39,14.35,20.3a29.16,29.16,0,0,1-5.07,13.3Q516.62,306.8,509.27,305.75Zm46.9,0a16,16,0,0,1-12.25-8.05,22.75,22.75,0,0,1-3.15-15.05q2.1-14.7,15.4-13.65,18.55,1.75,16.45,18.55A30.38,30.38,0,0,1,567.55,301Q563.52,306.8,556.17,305.75Z" transform="translate(-305.09 -266.13)"/><path class="cls-1" d="M777.37,459.05c.7.47,1,1.81.88,4s-1.35,5-3.68,8.4a22.4,22.4,0,0,1-8.4,7.53q-6,3.5-14.87,1.22T735.37,469.9q-2.8-3.15-30.8-51.1-9.11,4.2-14.7,4.55.71,31.5,1.4,46.55.35,6.64-11.37,9.27a41.4,41.4,0,0,1-23.45-1.57q-11.73-4.2-11.73-13.3,0-3.85.53-25.55t.87-45.68q.35-24,.53-48.65t-.7-40.77q-.88-16.09-3-16.1-2.81,0,1-3.15,8.06-6,22.05-3.85,22.39,3.49,24.15,32.9.35,9.1.18,16.1t-.35,26.25q-.18,19.24-.18,33.6A236.72,236.72,0,0,0,721.2,356q14.17-18.37,18.37-29.92,1.39-4.91,12.6,2.1,14,8.4,15.05,18.55a20,20,0,0,1-.35,3.85q-5.6,20.65-27.3,44.8l-6.3,6.3q4.2,5.25,16.1,22.23T768.45,450Q775.62,459.05,777.37,459.05Z" transform="translate(-305.09 -266.13)"/><path class="cls-1" d="M852.62,471q0,5.25-12.42,7.35a67.56,67.56,0,0,1-24.68-.35q-12.25-2.46-12.25-8.05,4.2-132.64-6.65-132.65-2.1,0,.7-3.85,5.25-7.69,17.85-7.7,30.8,0,35.7,31.85,2.45,14,2.8,38.15T852.62,471Zm-34-168a14.57,14.57,0,0,1-12.07-7.88,24,24,0,0,1-3-15.22q2.1-14.7,15-13.65,12.24,1.05,16.62,6.12a14.92,14.92,0,0,1,3.33,12.43Q836.18,304.7,818.67,303Z" transform="translate(-305.09 -266.13)"/></svg>