<svg id="Capa_1" data-name="Capa 1" xmlns="http://www.w3.org/2000/svg" viewBox="0 0 149.87 212.94"><defs><style>.cls-1{fill:#21bcef;}</style></defs><title>logoTab</title><path class="cls-1" d="M186.76,434.73q0-2.79.17-18t.18-28q0-12.78-.35-27.48T185.36,338q-1.05-8.58-3.15-8.58-2.81,0,.7-2.8,8-6.3,22.05-4.2,22.39,3.51,24.15,32.9,2.79,77.36,5.95,87.5,2.1,7.71,8.4,7.35a12.39,12.39,0,0,0,4.9-1.05,11.76,11.76,0,0,0,4.37-3.32q1.92-2.28,3.68-4.2a19.93,19.93,0,0,0,3.32-5.78c1-2.56,1.93-4.55,2.63-5.95a47.61,47.61,0,0,0,2.45-6.65q1.4-4.55,1.75-5.95l1.4-5.6,1.4-4.55q7-23.79,8.4-78.75.35-6.65,21.7-7t21.35,7q0,40.26-.7,59.85c0,.7.05,3.15.17,7.35s.23,8.23.35,12.08.29,8.46.53,13.82.58,10.21,1,14.53,1.05,8.52,1.75,12.6a37.94,37.94,0,0,0,2.62,9.45q1.57,3.33,3.68,3.67c.7.24.75,1.29.17,3.15s-2.51,3.74-5.77,5.6-7.7,2.8-13.3,2.8q-30.81,0-32.55-33.6c-.24-7-.59-10.61-1.05-10.85-.47,0-1.17,1.17-2.1,3.5q-10.86,27.3-31.15,39t-39.2-.18a37.69,37.69,0,0,1-13.65-15.57A46.62,46.62,0,0,1,186.76,434.73Zm41.3-132.3A15.55,15.55,0,0,1,216,294.38a23.36,23.36,0,0,1-3-15.05,17.92,17.92,0,0,1,6-11.55,14.17,14.17,0,0,1,11.2-3.5q16.8,1.41,14.35,20.3a29.13,29.13,0,0,1-5.08,13.3Q235.41,303.49,228.06,302.43Zm46.9,0a16,16,0,0,1-12.25-8.05,22.74,22.74,0,0,1-3.15-15.05q2.1-14.7,15.4-13.65,18.54,1.76,16.45,18.55a30.39,30.39,0,0,1-5.08,13.48Q282.31,303.49,275,302.43Z" transform="translate(-180.96 -264.18)"/></svg>